<?xml version="1.0" standalone="no"?>
<!DOCTYPE svg PUBLIC "-//W3C//DTD SVG 20010904//EN"
 "http://www.w3.org/TR/2001/REC-SVG-20010904/DTD/svg10.dtd">
<svg version="1.0" xmlns="http://www.w3.org/2000/svg"
 width="512.000000pt" height="512.000000pt" viewBox="0 0 512.000000 512.000000"
 preserveAspectRatio="xMidYMid meet">

<g transform="translate(0.000000,512.000000) scale(0.100000,-0.100000)"
fill="#000000" stroke="none">
<path d="M2321 5110 c-313 -31 -610 -116 -900 -261 -261 -129 -470 -281 -678
-491 -209 -211 -346 -404 -478 -673 -126 -255 -197 -484 -242 -775 -24 -161
-24 -539 0 -700 45 -291 116 -520 241 -775 134 -272 283 -480 498 -692 211
-209 404 -346 673 -478 255 -126 484 -197 775 -242 161 -24 539 -24 700 0 281
44 515 115 756 231 269 130 461 264 673 471 231 226 378 427 517 710 125 255
196 484 241 775 24 161 24 539 0 700 -45 291 -116 520 -241 775 -134 272 -283
480 -498 692 -211 209 -404 346 -673 478 -252 124 -486 197 -765 240 -126 19
-468 27 -599 15z m320 -1080 c166 -32 301 -158 345 -325 10 -37 14 -135 14
-372 l0 -321 338 -4 c292 -4 344 -7 386 -23 169 -62 280 -192 306 -357 33
-217 -89 -413 -306 -493 -42 -16 -94 -19 -386 -23 l-338 -4 0 -321 c0 -237 -4
-335 -14 -372 -59 -220 -274 -363 -492 -327 -175 29 -306 146 -358 321 -13 45
-16 110 -16 377 l0 322 -337 4 c-365 5 -374 6 -480 66 -151 84 -243 277 -214
450 29 167 138 295 307 357 42 16 94 19 387 23 l337 4 0 322 c0 345 3 374 55
476 33 66 120 148 191 182 96 45 177 56 275 38z"/>
</g>
</svg>
